<svg width="37" height="40" viewBox="0 0 37 40" fill="none" xmlns="http://www.w3.org/2000/svg">
<path fill-rule="evenodd" clip-rule="evenodd" d="M36.99 19.38C36.99 27.94 31.13 35.29 22.99 37.33C22.87 38.5 21.87 39.41 20.68 39.41C19.4 39.41 18.35 38.37 18.35 37.09C18.35 35.81 19.4 34.77 20.68 34.77C21.62 34.77 22.43 35.33 22.8 36.14C30.37 34.2 35.78 27.36 35.78 19.39C35.78 14.9 34.06 10.75 31.19 7.65C30.56 8.52 30.01 9.68 29.92 10.62L29.83 11.74L29.48 11.7C28.33 11.57 27.29 12.41 27.16 13.56C27.1 14.12 27.26 14.66 27.61 15.1C27.61 15.1 27.61 15.1 27.62 15.11C27.62 15.11 27.61 15.11 27.6 15.11C27.17 15.46 26.89 15.96 26.83 16.52C26.77 17.08 26.93 17.62 27.28 18.06C27.28 18.06 27.28 18.06 27.29 18.06H27.28C26.36 18.79 26.22 20.12 26.96 21.02H26.95C26.51 21.37 26.24 21.87 26.18 22.43C26.15 22.69 26.16 22.95 26.23 23.19L25.89 26.16L24.87 28.28C24.73 28.58 24.36 28.71 24.05 28.57C23.83 28.46 23.77 28.35 23.75 28.28C23.68 28.05 23.79 27.69 23.95 27.32L24.51 26.19L24.54 26.03L24.81 22.06C24.83 21.73 24.58 21.44 24.25 21.41C23.91 21.39 23.63 21.64 23.6 21.97L23.34 25.83L23.2 26.11C23.08 26.34 22.95 26.58 22.84 26.83L21.84 28.82C21.49 29.54 20.52 29.31 20.36 28.81C20.29 28.59 20.33 28.29 20.44 27.96L21.47 25.87L21.52 25.72L21.65 22.03C21.66 21.69 21.4 21.41 21.07 21.4C20.74 21.39 20.45 21.65 20.44 21.98L20.33 25.44C20.26 25.58 20.17 25.73 20.08 25.89C19.81 26.38 19.51 26.94 19.32 27.5L18.63 28.92C18.38 29.43 17.68 29.55 17.27 29.09C17.93 28.03 18.21 26.62 18.59 25.44C18.97 24.25 19.29 17.8 19.14 15.29H21.4C22.58 15.29 23.56 14.32 23.56 13.14V12.98C23.56 11.79 22.59 10.83 21.4 10.83H17.73C16.96 10.83 16.59 11.15 16 11.54L16.9 9.29C17.2 8.53 17.67 7.96 18.35 7.5L19.95 6.44C20.65 5.97 21.17 5.41 21.57 4.68L22.79 2.49L23.23 1.45L23.33 1.48C27.21 2.51 30.58 4.8 33.01 7.86C35.51 11.02 37 15.01 37 19.34L36.99 19.38ZM17.87 14.83C17.8 14.46 18.09 14.11 18.47 14.11H21.4C21.92 14.11 22.34 13.69 22.34 13.17V13.01C22.34 12.49 21.92 12.07 21.4 12.07H17.73C17.53 12.07 17.37 12.12 17.2 12.23L12.9 15.1C12.09 15.65 11.56 16.37 11.31 17.32L10.39 20.78C10.18 21.56 9.84 22.21 9.31 22.81L4.03 28.82L4.01 28.79C2.25 26.08 1.23 22.85 1.23 19.38C1.23 12.58 5.17 6.54 11.18 3.72C11.61 4.28 12.28 4.64 13.04 4.64C14.32 4.64 15.36 3.6 15.36 2.32C15.36 1.04 14.32 0 13.04 0C11.65 0 10.57 1.21 10.73 2.61C4.24 5.61 0 12.1 0 19.38C0 26.66 4.36 33.35 11 36.29L11.49 35.19L13.85 30.37C14.23 29.78 14.78 29.49 15.27 29.24C15.67 29.03 16.02 28.85 16.21 28.53C16.8 27.61 17.07 26.22 17.42 25.11C17.81 23.94 18.14 16.26 17.87 14.84V14.83ZM28.82 17.62L30.29 17.78C30.78 17.83 31.22 17.48 31.27 17C31.32 16.51 30.96 16.07 30.49 16.02L29.01 15.86C28.78 15.83 28.55 15.9 28.36 16.05C27.74 16.54 28.04 17.53 28.82 17.62ZM28.49 20.59L29.97 20.75C30.45 20.8 30.89 20.45 30.95 19.97C31 19.48 30.65 19.05 30.17 18.99L28.69 18.83C28.46 18.8 28.23 18.87 28.04 19.02C27.42 19.51 27.72 20.51 28.5 20.59H28.49ZM29.14 14.66L30.62 14.82C31.11 14.87 31.54 14.52 31.6 14.04C31.66 13.55 31.3 13.12 30.82 13.06L29.35 12.9C29.11 12.88 28.88 12.94 28.7 13.09C28.07 13.6 28.39 14.58 29.15 14.66H29.14ZM27.09 26.42C27.09 26.55 26.96 26.83 26.91 26.95C26.44 28.13 26.49 28.4 26.9 28.59C27.21 28.74 27.57 28.61 27.71 28.3L28.25 27.18C28.47 26.73 28.58 26.32 28.62 25.83L28.71 24.85C28.22 24.8 27.74 24.79 27.29 24.56L27.08 26.43L27.09 26.42ZM28.16 23.56L29.64 23.72C30.12 23.77 30.56 23.42 30.62 22.94C30.67 22.45 30.32 22.02 29.84 21.96L28.36 21.8C28.13 21.77 27.89 21.84 27.71 21.99C27.09 22.49 27.4 23.48 28.17 23.56H28.16Z" fill="#D2DDF8"/>
</svg>
