<?xml version="1.0" encoding="UTF-8"?>
<svg id="Capa_1" xmlns="http://www.w3.org/2000/svg" xmlns:xlink="http://www.w3.org/1999/xlink" version="1.1" viewBox="0 0 600 175">
  <!-- Generator: Adobe Illustrator 29.0.0, SVG Export Plug-In . SVG Version: 2.1.0 Build 186)  -->
  <defs>
    <style>
      .st0 {
        fill: none;
      }

      .st1 {
        fill: #45a5e0;
      }

      .st2 {
        fill: url(#Degradado_sin_nombre);
      }

      .st2, .st3, .st4 {
        fill-rule: evenodd;
      }

      .st3 {
        fill: url(#Degradado_sin_nombre_3);
      }

      .st4 {
        fill: url(#Degradado_sin_nombre_2);
      }

      .st5 {
        clip-path: url(#clippath);
      }
    </style>
    <clipPath id="clippath">
      <rect class="st0" x="25" y="23.5" width="550" height="128"/>
    </clipPath>
    <linearGradient id="Degradado_sin_nombre" data-name="Degradado sin nombre" x1="18.6" y1="53.6" x2="120.5" y2="53.2" gradientTransform="translate(0 177) scale(1 -1)" gradientUnits="userSpaceOnUse">
      <stop offset="0" stop-color="#0178c2"/>
      <stop offset="0" stop-color="#1285cc"/>
      <stop offset=".2" stop-color="#2e9adc"/>
      <stop offset=".3" stop-color="#43aae9"/>
      <stop offset=".4" stop-color="#53b6f2"/>
      <stop offset=".5" stop-color="#5cbcf7"/>
      <stop offset=".7" stop-color="#5fbff9"/>
      <stop offset="1" stop-color="#5fbff9" stop-opacity="0"/>
    </linearGradient>
    <linearGradient id="Degradado_sin_nombre_2" data-name="Degradado sin nombre 2" x1="159.5" y1="22.2" x2="100.6" y2="113.8" gradientTransform="translate(0 177) scale(1 -1)" gradientUnits="userSpaceOnUse">
      <stop offset="0" stop-color="#0178c2"/>
      <stop offset="0" stop-color="#1486cd"/>
      <stop offset=".2" stop-color="#2f9bdd"/>
      <stop offset=".2" stop-color="#44abe9"/>
      <stop offset=".4" stop-color="#53b6f2"/>
      <stop offset=".5" stop-color="#5cbcf7"/>
      <stop offset=".7" stop-color="#5fbff9"/>
      <stop offset="1" stop-color="#5fbff9" stop-opacity="0"/>
    </linearGradient>
    <linearGradient id="Degradado_sin_nombre_3" data-name="Degradado sin nombre 3" x1="110.6" y1="152.2" x2="59.5" y2="64.6" gradientTransform="translate(0 177) scale(1 -1)" gradientUnits="userSpaceOnUse">
      <stop offset="0" stop-color="#0178c2"/>
      <stop offset="0" stop-color="#1184cb"/>
      <stop offset=".2" stop-color="#2d99db"/>
      <stop offset=".3" stop-color="#43aae8"/>
      <stop offset=".4" stop-color="#52b5f1"/>
      <stop offset=".5" stop-color="#5cbcf7"/>
      <stop offset=".7" stop-color="#5fbff9"/>
      <stop offset="1" stop-color="#fff" stop-opacity="0"/>
    </linearGradient>
  </defs>
  <g class="st5">
    <g>
      <path class="st2" d="M74.7,105.9c-.4-.4-.7-.8-1.1-1.2-5.1-5.4-12.4-8.8-20.5-8.8-15.5,0-28.1,12.4-28.1,27.8s12.6,27.8,28.1,27.8,15.6-3.5,20.7-9c.2-.3.5-.5.7-.8,5.1-5.5,12.5-9,20.7-9s15.6,3.5,20.7,9c.3.3.5.5.7.8,5.1,5.6,12.5,9,20.7,9,15.5,0,28-12.5,28-27.8s-12.6-27.8-28-27.8-15.4,3.4-20.5,8.8c-.4.4-.7.8-1.1,1.2-5.1,5.4-12.4,8.8-20.5,8.8s-15.4-3.4-20.5-8.8Z"/>
      <path class="st1" d="M134.5,23.5c1.7,0,3.3.7,4.4,1.8,1.1,1.1,1.8,2.7,1.8,4.4s-.7,3.3-1.8,4.4c-1.1,1.1-2.7,1.8-4.4,1.8s-3.3-.7-4.4-1.8c-1.1-1.1-1.8-2.7-1.8-4.4s.7-3.3,1.8-4.4c1.1-1.1,2.7-1.8,4.4-1.8ZM132.5,32.6v-5.8h2.7c0,0,.2,0,.2,0,.4,0,.6.2.9.3.2.2.4.4.5.7,0,.3.2.5.2.9s-.1.9-.4,1.2c-.2.2-.4.4-.6.5l1.1,2.2h-1.1l-1-2h-1.4v2h-1,0ZM133.5,29.7h1.6c0,0,.1,0,.2,0,.2,0,.3-.1.4-.2,0,0,.2-.2.2-.3,0-.1,0-.3,0-.4s0-.3,0-.4c0-.2-.1-.3-.2-.4,0,0-.2-.2-.4-.2,0,0-.1,0-.2,0,0,0-.1,0-.2,0h-1.4v2h0ZM138,26.1c-.9-.9-2.2-1.5-3.6-1.5s-2.7.6-3.6,1.5c-.9.9-1.5,2.2-1.5,3.6s.6,2.7,1.5,3.6c.9.9,2.2,1.5,3.6,1.5s2.7-.6,3.6-1.5c.9-.9,1.5-2.2,1.5-3.6s-.6-2.7-1.5-3.6Z"/>
      <path class="st4" d="M121.5,61c.2-.5.3-1,.5-1.5,2.2-7.1,1.5-15.1-2.5-22-7.8-13.3-24.9-17.9-38.4-10.2-13.4,7.7-18,24.7-10.3,38,4.1,7,10.8,11.6,18.2,13.3.4,0,.7.1,1.1.2,7.4,1.6,14.1,6.2,18.2,13.3,4.1,7,4.8,15.1,2.5,22.3-.1.3-.2.7-.4,1-2.3,7.2-1.7,15.3,2.4,22.3,7.8,13.3,24.9,17.8,38.3,10.2,13.4-7.7,18-24.7,10.3-38-4.1-7-10.7-11.5-18-13.2-.5,0-1.1-.2-1.6-.3-7.3-1.7-13.9-6.3-18-13.2-4.1-6.9-4.7-14.9-2.5-22h0Z"/>
      <path class="st3" d="M68.8,61c-.2-.5-.3-1-.5-1.5-2.2-7.1-1.5-15.1,2.5-22,7.8-13.3,24.9-17.9,38.4-10.2,13.4,7.7,18,24.7,10.3,38-4.1,7-10.8,11.6-18.2,13.3-.4,0-.7.1-1.1.2-7.4,1.6-14.1,6.2-18.2,13.3-3.1,5.4-4.2,11.4-3.6,17.2-1.3-1-2.6-2.1-3.7-3.3-.4-.4-.7-.8-1.1-1.2-5.1-5.4-12.4-8.8-20.5-8.8s-3.2.1-4.8.4h0c7.3-1.7,13.9-6.3,18-13.2,4.1-6.9,4.7-14.9,2.5-22h0Z"/>
      <path d="M561.7,125v-7.3c-1.4,2.1-3.3,3.8-5.7,5.1-3.5,1.9-7.9,2.9-13.3,2.9s-8.5-.8-11.9-2.3c-3.4-1.5-6-3.6-7.9-6.4-1.9-2.7-2.8-5.8-2.8-9.3s.8-6.4,2.4-9.1c1.6-2.7,4.3-4.8,8-6.4,3.7-1.6,8.6-2.4,14.7-2.4h15.6v-.9c0-4.1-1.3-7.3-3.7-9.6-2.5-2.3-6.2-3.4-11.3-3.4s-6.8.5-10,1.6c-3.3,1.1-6.1,2.5-8.3,4.4l-5.5-10.2c3.2-2.5,7.1-4.3,11.6-5.6,4.5-1.2,9.1-1.8,14-1.8,8.7,0,15.5,2.1,20.3,6.2,4.8,4.1,7.2,10.6,7.2,19.3v35.1h-13.4ZM560.9,106.2v-7h-14.6c-4.8,0-8.1.8-9.7,2.3-1.7,1.5-2.5,3.4-2.5,5.7s1,4.6,3,6c2,1.5,4.9,2.3,8.5,2.3s6.6-.8,9.4-2.4c2.7-1.6,4.7-3.9,5.9-7h0Z"/>
      <path d="M485.9,64.3c4.8,0,9.1.9,12.9,2.8,3.8,1.9,6.8,4.7,9,8.6,2.2,3.9,3.3,8.8,3.3,14.9v34.4h-14.1v-32.6c0-5.3-1.3-9.3-3.8-11.9-2.5-2.6-6-4-10.6-4s-6.2.7-8.8,2c-2.5,1.4-4.5,3.4-5.9,6-1.4,2.7-2.1,6-2.1,10v30.3h-14.2v-60h13.5v7.8s0,0,.3-.3c1.8-2.1,4-3.7,6.6-5.1,4-2.1,8.7-3.1,14-3.1h0Z"/>
      <path d="M430.7,55.1c-2.6,0-4.8-.8-6.5-2.5-1.7-1.6-2.5-3.6-2.5-6s.8-4.4,2.5-6c1.7-1.6,3.9-2.4,6.5-2.4s4.8.8,6.5,2.3c1.7,1.5,2.5,3.5,2.5,5.8s-.8,4.6-2.5,6.2c-1.6,1.7-3.8,2.5-6.6,2.5h0Z"/>
      <path d="M437.8,65h-14.2v60h14.2v-60Z"/>
      <path d="M385.4,64.3c4.8,0,9.1.9,12.8,2.8,3.7,1.9,6.7,4.7,8.8,8.6,2.1,3.9,3.2,8.8,3.2,14.9v34.4h-14.1v-32.6c0-5.3-1.2-9.3-3.5-11.9-2.3-2.6-5.7-4-10-4s-5.8.7-8.2,2c-2.4,1.4-4.2,3.3-5.5,6-1.3,2.6-2,6-2,10v30.4h-14.1v-32.6c0-5.3-1.2-9.3-3.5-11.9-2.3-2.6-5.7-4-10.1-4s-5.8.7-8.2,2c-2.4,1.4-4.2,3.3-5.5,6-1.3,2.6-2,6-2,10v30.4h-14.2v-60h13.5v7.6c1.9-2.3,3.9-3.9,6.5-5.3,3.9-2,8.3-3,13.3-3s10.6,1.4,14.8,4.1c2.3,1.5,4.2,3.5,5.6,5.9,4.1-6.7,15.1-10,22.6-10h0Z"/>
      <path d="M213,125l35.6-78.6h14.5l35.7,78.6h-15.4l-7.8-18.2h-39.6l-7.8,18.2h-15.2ZM270.7,95.3l-14.9-34.4-14.8,34.4h29.7Z"/>
    </g>
  </g>
</svg>