<svg width="25" height="25" viewBox="0 0 25 25" fill="none" xmlns="http://www.w3.org/2000/svg">
<g id="Logo Instagram">
<path id="Shape" fill-rule="evenodd" clip-rule="evenodd" d="M24.3553 4.31719C24.663 5.10851 24.8779 6.02174 24.9365 7.35009C24.995 8.6834 25 9.10825 25 12.5025C25 15.8967 24.9853 16.3216 24.9267 17.6549C24.8682 18.9832 24.6531 19.8917 24.3455 20.6878C23.6958 22.3677 22.3672 23.6961 20.6868 24.3456C19.8955 24.6534 18.9821 24.8682 17.6535 24.9267C16.3199 24.9855 15.895 25 12.5001 25C9.10522 25 8.6801 24.9855 7.34672 24.9267C6.01793 24.8682 5.10949 24.6534 4.31324 24.3456C3.48284 24.0332 2.72571 23.5398 2.10043 22.9049C1.46541 22.2798 0.972172 21.5277 0.654666 20.6878C0.346891 19.8964 0.131849 18.9832 0.0732707 17.6549C0.0146923 16.3216 0 15.8967 0 12.5025C0 9.10825 0.0146923 8.6834 0.0782317 7.34513C0.13681 6.01678 0.351661 5.10851 0.659436 4.31242C0.972172 3.48217 1.46541 2.72519 2.10043 2.10003C2.72571 1.46017 3.47788 0.971796 4.3182 0.65435C5.10949 0.346825 6.02289 0.131824 7.35149 0.0732567C8.68506 0.0146895 9.10999 0 12.5049 0C15.8997 0 16.3247 0.0146895 17.6632 0.0782168C18.9918 0.136784 19.9004 0.351594 20.6965 0.65931C21.5269 0.971796 22.284 1.46513 22.9093 2.10003C23.5493 2.72519 24.0378 3.47721 24.3553 4.31719ZM22.2548 19.877C22.4258 19.4375 22.6309 18.7781 22.6847 17.5572C22.7433 16.2386 22.758 15.8479 22.758 12.5122C22.758 9.17655 22.7433 8.78108 22.6847 7.46246C22.6309 6.24628 22.4258 5.5822 22.2548 5.14266C22.0545 4.60049 21.737 4.11211 21.3218 3.70672C20.9212 3.2916 20.4278 2.97415 19.8857 2.77403C19.4461 2.6031 18.7867 2.39802 17.5655 2.34422C16.2514 2.28565 15.8558 2.27096 12.5146 2.27096C9.17847 2.27096 8.78273 2.28565 7.46386 2.34422C6.24764 2.39802 5.58325 2.6031 5.14362 2.77403C4.60134 2.97415 4.11287 3.2916 3.70759 3.70672C3.28743 4.10734 2.96992 4.60049 2.76957 5.14266C2.59861 5.5822 2.39349 6.24151 2.33987 7.46246C2.2811 8.77612 2.2666 9.17655 2.2666 12.5122C2.2666 15.8479 2.2811 16.2435 2.33987 17.5622C2.39349 18.7781 2.59861 19.4424 2.76957 19.882C2.96992 20.4239 3.28743 20.9123 3.70263 21.3177C4.10314 21.7328 4.59657 22.0503 5.13866 22.2506C5.57828 22.4215 6.23772 22.6266 7.4589 22.6802C8.773 22.739 9.17351 22.7535 12.5098 22.7535C15.8461 22.7535 16.2417 22.739 17.5605 22.6802C18.7769 22.6266 19.4411 22.4215 19.8808 22.2506C20.9701 21.8305 21.8346 20.9661 22.2548 19.877Z" fill="#9CA3AF"/>
<path id="Shape_2" fill-rule="evenodd" clip-rule="evenodd" d="M6.08154 12.5025C6.08154 8.95678 8.95875 6.08031 12.5049 6.08031C16.0513 6.08031 18.9283 8.95678 18.9283 12.5025C18.9283 16.0482 16.0513 18.9247 12.5049 18.9247C8.95875 18.9247 6.08154 16.0482 6.08154 12.5025ZM8.33838 12.5025C8.33838 14.8028 10.2045 16.6684 12.5051 16.6684C14.8059 16.6684 16.6718 14.8028 16.6718 12.5025C16.6718 10.2021 14.8059 8.33657 12.5051 8.33657C10.2045 8.33657 8.33838 10.2021 8.33838 12.5025Z" fill="#9CA3AF"/>
<path id="Path" d="M20.6819 5.82639C20.6819 6.65435 20.0105 7.32568 19.1822 7.32568C18.3541 7.32568 17.6826 6.65435 17.6826 5.82639C17.6826 4.99825 18.3541 4.32711 19.1822 4.32711C20.0105 4.32711 20.6819 4.99825 20.6819 5.82639Z" fill="#9CA3AF"/>
</g>
</svg>
