<svg width="1920" height="1023" viewBox="0 0 1920 1023" fill="none" xmlns="http://www.w3.org/2000/svg">
<mask id="mask0_581_226" style="mask-type:alpha" maskUnits="userSpaceOnUse" x="-63" y="-49" width="2110" height="1181">
<rect width="2108.23" height="1180.13" transform="matrix(-1 0.000183475 -0.000252458 -1 2046.13 1131.36)" fill="#F5288F"/>
</mask>
<g mask="url(#mask0_581_226)">
<g filter="url(#filter0_f_581_226)">
<ellipse cx="736.61" cy="627.96" rx="736.61" ry="627.96" transform="matrix(-1 0.000183475 -0.000252458 -1 2300.26 1634.77)" fill="#245AFF"/>
</g>
<g filter="url(#filter1_f_581_226)">
<ellipse cx="736.61" cy="627.96" rx="736.61" ry="627.96" transform="matrix(-1 0.000183475 -0.000252458 -1 328.649 1169.74)" fill="#245AFF"/>
</g>
<g filter="url(#filter2_f_581_226)">
<ellipse cx="536.583" cy="457.437" rx="536.583" ry="457.437" transform="matrix(-1 0.000183475 -0.000252458 -1 550.99 1543.23)" fill="#161539"/>
</g>
<g filter="url(#filter3_f_581_226)">
<ellipse cx="736.61" cy="627.96" rx="736.61" ry="627.96" transform="matrix(-1 0.000183475 -0.000252458 -1 2782.67 844.314)" fill="#45DFF9"/>
</g>
<g filter="url(#filter4_f_581_226)">
<ellipse cx="615.959" cy="525.105" rx="615.959" ry="525.105" transform="matrix(-1 0.000183475 -0.000252458 -1 1411.27 1710.72)" fill="#245AFF"/>
</g>
<path d="M1957.19 1169.27C1220.75 1053.83 995.757 615.633 650.052 83.855L2217.26 517.664C2376.05 773.348 2546.34 1261.63 1957.19 1169.27Z" fill="#45DFF9"/>
<g filter="url(#filter5_f_581_226)">
<path d="M1905.4 1175.8C1168.96 1060.36 1125.13 740.028 779.423 208.25L2144.14 478.728C2302.93 734.411 2494.55 1268.16 1905.4 1175.8Z" fill="#45DFF9"/>
</g>
<g filter="url(#filter6_f_581_226)">
<path d="M2012.46 1266.79C1273.95 1158.84 1264.17 842.549 939.988 240.969L2305.89 506.24C2454.26 795.739 2603.28 1353.15 2012.46 1266.79Z" fill="#45DFF9"/>
</g>
<g filter="url(#filter7_f_581_226)">
<ellipse cx="615.959" cy="525.105" rx="615.959" ry="525.105" transform="matrix(-1 0.000183475 -0.000252458 -1 1607.81 476.414)" fill="#245AFF"/>
</g>
<path d="M2539.47 619.101C1418.19 689.789 896.156 126.033 157.071 -534.594L2627.05 -411.705C2971.62 -91.6655 3436.49 562.552 2539.47 619.101Z" fill="#45DFF9"/>
<g filter="url(#filter8_f_581_226)">
<path d="M2663.06 744.161C1541.78 814.848 1386.66 422.823 647.58 -237.805L2750.64 -286.646C3095.21 33.3941 3560.08 687.611 2663.06 744.161Z" fill="#245AFF"/>
</g>
<g filter="url(#filter9_f_581_226)">
<path d="M2364.57 587.229C1243.29 657.916 1088.17 265.89 349.089 -394.737L2452.15 -443.578C2796.71 -123.538 3261.59 530.679 2364.57 587.229Z" fill="#245AFF"/>
</g>
<g filter="url(#filter10_f_581_226)">
<ellipse cx="736.61" cy="627.96" rx="736.61" ry="627.96" transform="matrix(-1 0.000183475 -0.000252458 -1 2687.35 579.07)" fill="#245AFF"/>
</g>
<g filter="url(#filter11_f_581_226)">
<path d="M1747.52 508.867C1747.47 293.604 1952.12 119.061 2204.63 119.015C2457.14 118.968 2661.88 293.436 2661.93 508.699C2661.99 723.963 2457.33 898.505 2204.83 898.552C1952.32 898.598 1747.58 724.13 1747.52 508.867Z" fill="#45DFF9"/>
</g>
<g filter="url(#filter12_f_581_226)">
<ellipse cx="973.466" cy="169.836" rx="394" ry="244.383" transform="rotate(-180 973.466 169.836)" fill="#45E0F9"/>
</g>
</g>
<g filter="url(#filter13_f_581_226)">
<ellipse cx="251.614" cy="399.283" rx="251.614" ry="399.283" transform="matrix(0.90989 -0.526938 0.59223 0.743205 -94.1584 519.556)" fill="#161539"/>
</g>
<mask id="mask1_581_226" style="mask-type:alpha" maskUnits="userSpaceOnUse" x="-667" y="-106" width="2051" height="1380">
<path d="M1222.45 1273.92L1383.9 217.669L239.182 -105.037L-100.656 -104.315L-666.742 480.453L-624.393 955.137L367.184 1156.39L1222.45 1273.92Z" fill="url(#paint0_linear_581_226)"/>
</mask>
<g mask="url(#mask1_581_226)">
<mask id="mask2_581_226" style="mask-type:alpha" maskUnits="userSpaceOnUse" x="-708" y="-174" width="2142" height="1456">
<path d="M-707.708 916.939C-573.621 439.649 -340.489 -149.016 -335.656 -173.16L1433.18 192.586L1233.43 1281.69L-707.708 916.939Z" fill="url(#paint1_linear_581_226)"/>
</mask>
<g mask="url(#mask2_581_226)">
<path d="M253.678 109.358C447.625 148.721 562.938 352.808 520.127 506.106C477.316 659.403 342.624 844.644 134.535 802.411C31.4172 781.482 -122.405 858.546 -223.599 757.342C-326.611 654.32 -239.864 450.997 -218.268 373.666C-175.457 220.368 59.7306 69.9945 253.678 109.358Z" fill="#161539"/>
<g filter="url(#filter14_f_581_226)">
<path d="M247.688 122.016C455.692 164.232 567.482 327.198 534.245 446.213C501.008 565.228 378.912 705.485 170.908 663.269C67.8319 642.349 -80.4041 699.601 -186.316 615.48C-294.13 529.846 -220.452 373.278 -203.686 313.241C-170.449 194.226 39.6843 79.7997 247.688 122.016Z" fill="#161539"/>
</g>
<g filter="url(#filter15_f_581_226)">
<path d="M263.317 161.019C496.449 208.335 617.518 406.119 576.477 553.077C535.437 700.035 393.619 875.039 160.487 827.723C44.9593 804.276 -127.639 891.556 -244.458 790.516C-363.377 687.661 -272.16 481.247 -251.457 407.114C-210.416 260.155 30.1854 113.703 263.317 161.019Z" fill="#161539"/>
</g>
<g filter="url(#filter16_f_581_226)">
<path d="M102.646 327.712C313.641 406.563 445.956 623.912 400.526 786.587C355.096 949.263 194.059 1102.41 -20.1457 1058.93C-126.295 1037.39 -312.265 1186.99 -415.756 1080.39C-521.106 971.867 -425.413 677.336 -402.496 595.275C-357.066 432.599 -141.781 236.369 102.646 327.712Z" fill="#161539"/>
</g>
<g filter="url(#filter17_f_581_226)">
<path d="M338.846 277.989C639.897 339.09 852.159 641.024 800.244 826.918C748.33 1012.81 534.906 1181.85 233.855 1120.75C84.6699 1090.47 -116.281 1124.65 -267.674 996.105C-421.786 865.25 -402.125 461.942 -375.937 368.167C-324.023 182.273 37.7948 216.888 338.846 277.989Z" fill="#161539"/>
</g>
<g filter="url(#filter18_f_581_226)">
<path d="M456.795 380.336C767.903 443.478 965.762 748.391 912.664 938.524C859.566 1128.66 639.608 1301.21 328.499 1238.07C174.33 1206.78 15.9706 902.833 -140.754 770.975C-300.294 636.749 -185.477 386.036 -158.692 290.123C-105.594 99.99 145.687 317.194 456.795 380.336Z" fill="#161539"/>
</g>
<g filter="url(#filter19_f_581_226)">
<path d="M241.987 304.796C512.746 365.036 669.549 666.105 611.655 855.218C553.761 1044.33 349.701 1217.3 78.9413 1157.06C-55.2331 1127.21 -233.546 1141.26 -364.126 1011.62C-497.053 879.654 -381.194 629.937 -351.989 534.539C-294.095 345.426 -28.7722 244.556 241.987 304.796Z" fill="#161539"/>
</g>
</g>
</g>
<mask id="mask3_581_226" style="mask-type:alpha" maskUnits="userSpaceOnUse" x="597" y="-935" width="3062" height="2351">
<path d="M597.767 234.062C970.885 741.645 1446.98 1389.09 1463.21 1415.62L3658.15 247.22L2792.71 -934.34L597.767 234.062Z" fill="url(#paint2_linear_581_226)"/>
</mask>
<g mask="url(#mask3_581_226)">
<path d="M2333.32 664.194C2580.88 532.413 2655.74 239.647 2536.25 76.5072C2416.76 -86.6322 2159.73 -247.378 1894.12 -105.989C1762.5 -35.924 1522.8 -59.9063 1425.93 104.577C1327.31 272.015 1526.48 475.249 1586.76 557.545C1706.25 720.684 2085.76 795.974 2333.32 664.194Z" fill="#161539"/>
<g filter="url(#filter20_f_581_226)">
<path d="M2320.12 651.802C2585.62 510.47 2661.07 252.908 2558.36 112.679C2455.65 -27.5508 2220.68 -158.253 1955.18 -16.9219C1823.61 53.1147 1592.53 40.7657 1487.36 193.806C1380.3 349.596 1556.57 521.591 1608.39 592.33C1711.1 732.559 2054.62 793.133 2320.12 651.802Z" fill="#161539"/>
</g>
<g filter="url(#filter21_f_581_226)">
<path d="M2328.16 647.517C2625.74 489.112 2697.46 182.905 2570.83 10.0198C2444.2 -162.866 2165.75 -329.982 1868.17 -171.577C1720.7 -93.0793 1441.92 -133.94 1329.78 45.4147C1215.62 227.992 1439.59 456.822 1503.47 544.034C1630.1 716.92 2030.58 805.923 2328.16 647.517Z" fill="#161539"/>
</g>
<g filter="url(#filter22_f_581_226)">
<path d="M2347.51 608.76C2683.85 370.78 2823.94 -15.4513 2675.73 -217.791C2527.53 -420.131 2180.83 -539.608 1823.95 -349.633C1647.09 -255.491 1258.22 -354.998 1121.91 -142.389C983.142 74.0403 1233.91 324.117 1308.67 426.188C1456.88 628.528 1957.88 884.447 2347.51 608.76Z" fill="#161539"/>
</g>
<g filter="url(#filter23_f_581_226)">
<path d="M2411.31 460.98C2795.59 256.426 2935.45 -180.368 2790.55 -378.197C2645.65 -576.027 2288.22 -683.009 1903.95 -478.456C1713.52 -377.089 1427.01 -329.511 1272.93 -110.564C1116.08 112.316 1366.07 354.254 1439.17 454.049C1584.07 651.878 2027.04 665.534 2411.31 460.98Z" fill="#161539"/>
</g>
<g filter="url(#filter24_f_581_226)">
<path d="M2503.04 302.401C2900.15 91.0132 3046.71 -357.608 2898.51 -559.948C2750.3 -762.288 2382.59 -870.577 1985.48 -659.19C1788.7 -554.437 1493.2 -504.468 1333.2 -279.252C1170.33 -49.99 1426.58 197.169 1501.35 299.24C1649.55 501.58 2105.93 513.788 2503.04 302.401Z" fill="#161539"/>
</g>
<g filter="url(#filter25_f_581_226)">
<path d="M2227.92 493.569C2575.4 308.606 2679.23 -117.268 2531.02 -319.608C2382.82 -521.948 2041.04 -644.044 1693.57 -459.08C1521.39 -367.421 1272.89 -309.954 1142.12 -100.294C1009 113.131 1258.49 363.891 1333.25 465.962C1481.45 668.302 1880.45 678.533 2227.92 493.569Z" fill="#161539"/>
</g>
</g>
<mask id="mask4_581_226" style="mask-type:alpha" maskUnits="userSpaceOnUse" x="-266" y="473" width="1733" height="896">
<path d="M1409.39 1368.65L1466.08 875.781L-241.632 473.612L-265.176 1030.09L1409.39 1368.65Z" fill="url(#paint3_linear_581_226)"/>
</mask>
<g mask="url(#mask4_581_226)">
<mask id="mask5_581_226" style="mask-type:alpha" maskUnits="userSpaceOnUse" x="-216" y="448" width="1691" height="985">
<path d="M1474.14 750.86L1357.54 1432.14L-215.582 1045.81L-129.78 448.388L1474.14 750.86Z" fill="url(#paint4_linear_581_226)"/>
</mask>
<g mask="url(#mask5_581_226)">
<path d="M352.544 821.941C596.569 1024.33 872.517 1035.42 1071.08 1025.18L1233.74 1026.39L1337.91 1045.05L1167.25 1222.34L866.485 1198.23L190.992 1044.71C190.992 1044.71 -333.953 778.758 -182.695 776.264C-53.4202 760.565 99.289 667.828 352.544 821.941Z" fill="#161539"/>
<g filter="url(#filter26_f_581_226)">
<path d="M352.544 821.941C614.7 997.148 618.023 1012.09 967.65 1029.22L1233.74 1026.39L1337.91 1045.05L1167.25 1222.34L866.485 1198.23L190.992 1044.71C190.992 1044.71 -333.953 778.758 -182.695 776.264C-53.4202 760.565 99.289 667.828 352.544 821.941Z" fill="#161539"/>
</g>
<g filter="url(#filter27_f_581_226)">
<path d="M352.544 821.941C700.739 1097.26 705.004 1001.67 1054.63 1018.8L1155.93 1016.36L1261.56 1026.17L1337.91 1045.05L1167.25 1222.34L866.485 1198.23L190.992 1044.71C190.992 1044.71 -333.953 778.758 -182.695 776.264C-53.4202 760.565 97.8341 638.557 352.544 821.941Z" fill="#161539"/>
</g>
<g filter="url(#filter28_f_581_226)">
<path d="M289.29 789.343C637.486 1064.66 673.081 1149.69 1105.02 1018.42L1206.31 1015.98L1367.57 1025.37L1494.31 1043.87L1166.87 1221.98L866.109 1197.87L190.616 1044.35C190.616 1044.35 -334.329 778.395 -183.071 775.9C-53.7968 760.201 34.5804 605.959 289.29 789.343Z" fill="#161539"/>
</g>
<g filter="url(#filter29_f_581_226)">
<path d="M280.349 774.093C512.662 1042.13 715.336 1095.99 1035.07 1010.88L1453.76 911.522L1509.1 985.6L1494.31 1043.87L1166.87 1221.98L866.109 1197.87L190.616 1044.35C190.616 1044.35 -334.329 778.395 -183.071 775.9C-53.7967 760.201 -23.3684 480.224 280.349 774.093Z" fill="#161539"/>
</g>
</g>
</g>
<defs>
<filter id="filter0_f_581_226" x="274.428" y="-173.475" width="2578.13" height="2360.83" filterUnits="userSpaceOnUse" color-interpolation-filters="sRGB">
<feFlood flood-opacity="0" result="BackgroundImageFix"/>
<feBlend mode="normal" in="SourceGraphic" in2="BackgroundImageFix" result="shape"/>
<feGaussianBlur stdDeviation="276.229" result="effect1_foregroundBlur_581_226"/>
</filter>
<filter id="filter1_f_581_226" x="-1697.19" y="-638.503" width="2578.13" height="2360.83" filterUnits="userSpaceOnUse" color-interpolation-filters="sRGB">
<feFlood flood-opacity="0" result="BackgroundImageFix"/>
<feBlend mode="normal" in="SourceGraphic" in2="BackgroundImageFix" result="shape"/>
<feGaussianBlur stdDeviation="276.229" result="effect1_foregroundBlur_581_226"/>
</filter>
<filter id="filter2_f_581_226" x="-1074.75" y="75.9943" width="2178.08" height="2019.79" filterUnits="userSpaceOnUse" color-interpolation-filters="sRGB">
<feFlood flood-opacity="0" result="BackgroundImageFix"/>
<feBlend mode="normal" in="SourceGraphic" in2="BackgroundImageFix" result="shape"/>
<feGaussianBlur stdDeviation="276.229" result="effect1_foregroundBlur_581_226"/>
</filter>
<filter id="filter3_f_581_226" x="756.837" y="-963.927" width="2578.13" height="2360.83" filterUnits="userSpaceOnUse" color-interpolation-filters="sRGB">
<feFlood flood-opacity="0" result="BackgroundImageFix"/>
<feBlend mode="normal" in="SourceGraphic" in2="BackgroundImageFix" result="shape"/>
<feGaussianBlur stdDeviation="276.229" result="effect1_foregroundBlur_581_226"/>
</filter>
<filter id="filter4_f_581_226" x="-373.238" y="108.162" width="2336.83" height="2155.12" filterUnits="userSpaceOnUse" color-interpolation-filters="sRGB">
<feFlood flood-opacity="0" result="BackgroundImageFix"/>
<feBlend mode="normal" in="SourceGraphic" in2="BackgroundImageFix" result="shape"/>
<feGaussianBlur stdDeviation="276.229" result="effect1_foregroundBlur_581_226"/>
</filter>
<filter id="filter5_f_581_226" x="718.119" y="146.946" width="1648.72" height="1100.77" filterUnits="userSpaceOnUse" color-interpolation-filters="sRGB">
<feFlood flood-opacity="0" result="BackgroundImageFix"/>
<feBlend mode="normal" in="SourceGraphic" in2="BackgroundImageFix" result="shape"/>
<feGaussianBlur stdDeviation="30.6522" result="effect1_foregroundBlur_581_226"/>
</filter>
<filter id="filter6_f_581_226" x="813.292" y="114.273" width="1752.51" height="1288.2" filterUnits="userSpaceOnUse" color-interpolation-filters="sRGB">
<feFlood flood-opacity="0" result="BackgroundImageFix"/>
<feBlend mode="normal" in="SourceGraphic" in2="BackgroundImageFix" result="shape"/>
<feGaussianBlur stdDeviation="63.3478" result="effect1_foregroundBlur_581_226"/>
</filter>
<filter id="filter7_f_581_226" x="-176.698" y="-1126.14" width="2336.83" height="2155.12" filterUnits="userSpaceOnUse" color-interpolation-filters="sRGB">
<feFlood flood-opacity="0" result="BackgroundImageFix"/>
<feBlend mode="normal" in="SourceGraphic" in2="BackgroundImageFix" result="shape"/>
<feGaussianBlur stdDeviation="276.229" result="effect1_foregroundBlur_581_226"/>
</filter>
<filter id="filter8_f_581_226" x="499.94" y="-434.285" width="2830.32" height="1334.27" filterUnits="userSpaceOnUse" color-interpolation-filters="sRGB">
<feFlood flood-opacity="0" result="BackgroundImageFix"/>
<feBlend mode="normal" in="SourceGraphic" in2="BackgroundImageFix" result="shape"/>
<feGaussianBlur stdDeviation="73.8197" result="effect1_foregroundBlur_581_226"/>
</filter>
<filter id="filter9_f_581_226" x="239.55" y="-553.117" width="2754.12" height="1258.07" filterUnits="userSpaceOnUse" color-interpolation-filters="sRGB">
<feFlood flood-opacity="0" result="BackgroundImageFix"/>
<feBlend mode="normal" in="SourceGraphic" in2="BackgroundImageFix" result="shape"/>
<feGaussianBlur stdDeviation="54.7695" result="effect1_foregroundBlur_581_226"/>
</filter>
<filter id="filter10_f_581_226" x="661.518" y="-1229.17" width="2578.13" height="2360.83" filterUnits="userSpaceOnUse" color-interpolation-filters="sRGB">
<feFlood flood-opacity="0" result="BackgroundImageFix"/>
<feBlend mode="normal" in="SourceGraphic" in2="BackgroundImageFix" result="shape"/>
<feGaussianBlur stdDeviation="276.229" result="effect1_foregroundBlur_581_226"/>
</filter>
<filter id="filter11_f_581_226" x="1195.06" y="-433.442" width="2019.33" height="1884.45" filterUnits="userSpaceOnUse" color-interpolation-filters="sRGB">
<feFlood flood-opacity="0" result="BackgroundImageFix"/>
<feBlend mode="normal" in="SourceGraphic" in2="BackgroundImageFix" result="shape"/>
<feGaussianBlur stdDeviation="276.229" result="effect1_foregroundBlur_581_226"/>
</filter>
<filter id="filter12_f_581_226" x="279.466" y="-374.547" width="1388" height="1088.77" filterUnits="userSpaceOnUse" color-interpolation-filters="sRGB">
<feFlood flood-opacity="0" result="BackgroundImageFix"/>
<feBlend mode="normal" in="SourceGraphic" in2="BackgroundImageFix" result="shape"/>
<feGaussianBlur stdDeviation="150" result="effect1_foregroundBlur_581_226"/>
</filter>
<filter id="filter13_f_581_226" x="-206.422" y="110.082" width="1155.35" height="1147.28" filterUnits="userSpaceOnUse" color-interpolation-filters="sRGB">
<feFlood flood-opacity="0" result="BackgroundImageFix"/>
<feBlend mode="normal" in="SourceGraphic" in2="BackgroundImageFix" result="shape"/>
<feGaussianBlur stdDeviation="124.268" result="effect1_foregroundBlur_581_226"/>
</filter>
<filter id="filter14_f_581_226" x="-253.781" y="103.127" width="803.756" height="577.759" filterUnits="userSpaceOnUse" color-interpolation-filters="sRGB">
<feFlood flood-opacity="0" result="BackgroundImageFix"/>
<feBlend mode="normal" in="SourceGraphic" in2="BackgroundImageFix" result="shape"/>
<feGaussianBlur stdDeviation="4.97072" result="effect1_foregroundBlur_581_226"/>
</filter>
<filter id="filter15_f_581_226" x="-339.19" y="117.17" width="958.36" height="758.168" filterUnits="userSpaceOnUse" color-interpolation-filters="sRGB">
<feFlood flood-opacity="0" result="BackgroundImageFix"/>
<feBlend mode="normal" in="SourceGraphic" in2="BackgroundImageFix" result="shape"/>
<feGaussianBlur stdDeviation="17.3975" result="effect1_foregroundBlur_581_226"/>
</filter>
<filter id="filter16_f_581_226" x="-513.961" y="254.749" width="973.121" height="914.076" filterUnits="userSpaceOnUse" color-interpolation-filters="sRGB">
<feFlood flood-opacity="0" result="BackgroundImageFix"/>
<feBlend mode="normal" in="SourceGraphic" in2="BackgroundImageFix" result="shape"/>
<feGaussianBlur stdDeviation="24.8536" result="effect1_foregroundBlur_581_226"/>
</filter>
<filter id="filter17_f_581_226" x="-528.089" y="95.0367" width="1470.37" height="1172.64" filterUnits="userSpaceOnUse" color-interpolation-filters="sRGB">
<feFlood flood-opacity="0" result="BackgroundImageFix"/>
<feBlend mode="normal" in="SourceGraphic" in2="BackgroundImageFix" result="shape"/>
<feGaussianBlur stdDeviation="67.1047" result="effect1_foregroundBlur_581_226"/>
</filter>
<filter id="filter18_f_581_226" x="-556.763" y="-119.255" width="1811.06" height="1703.63" filterUnits="userSpaceOnUse" color-interpolation-filters="sRGB">
<feFlood flood-opacity="0" result="BackgroundImageFix"/>
<feBlend mode="normal" in="SourceGraphic" in2="BackgroundImageFix" result="shape"/>
<feGaussianBlur stdDeviation="166.519" result="effect1_foregroundBlur_581_226"/>
</filter>
<filter id="filter19_f_581_226" x="-580.745" y="133.302" width="1358.46" height="1190.03" filterUnits="userSpaceOnUse" color-interpolation-filters="sRGB">
<feFlood flood-opacity="0" result="BackgroundImageFix"/>
<feBlend mode="normal" in="SourceGraphic" in2="BackgroundImageFix" result="shape"/>
<feGaussianBlur stdDeviation="77.0461" result="effect1_foregroundBlur_581_226"/>
</filter>
<filter id="filter20_f_581_226" x="1443.54" y="-87.7119" width="1168.89" height="829.964" filterUnits="userSpaceOnUse" color-interpolation-filters="sRGB">
<feFlood flood-opacity="0" result="BackgroundImageFix"/>
<feBlend mode="normal" in="SourceGraphic" in2="BackgroundImageFix" result="shape"/>
<feGaussianBlur stdDeviation="4.97072" result="effect1_foregroundBlur_581_226"/>
</filter>
<filter id="filter21_f_581_226" x="1263.07" y="-269.893" width="1402.32" height="1034.73" filterUnits="userSpaceOnUse" color-interpolation-filters="sRGB">
<feFlood flood-opacity="0" result="BackgroundImageFix"/>
<feBlend mode="normal" in="SourceGraphic" in2="BackgroundImageFix" result="shape"/>
<feGaussianBlur stdDeviation="17.3975" result="effect1_foregroundBlur_581_226"/>
</filter>
<filter id="filter22_f_581_226" x="1031.07" y="-494.809" width="1753.17" height="1273.85" filterUnits="userSpaceOnUse" color-interpolation-filters="sRGB">
<feFlood flood-opacity="0" result="BackgroundImageFix"/>
<feBlend mode="normal" in="SourceGraphic" in2="BackgroundImageFix" result="shape"/>
<feGaussianBlur stdDeviation="24.8536" result="effect1_foregroundBlur_581_226"/>
</filter>
<filter id="filter23_f_581_226" x="1087.96" y="-723.009" width="1892.79" height="1465.72" filterUnits="userSpaceOnUse" color-interpolation-filters="sRGB">
<feFlood flood-opacity="0" result="BackgroundImageFix"/>
<feBlend mode="normal" in="SourceGraphic" in2="BackgroundImageFix" result="shape"/>
<feGaussianBlur stdDeviation="67.1047" result="effect1_foregroundBlur_581_226"/>
</filter>
<filter id="filter24_f_581_226" x="946.982" y="-1107.11" width="2341.17" height="1896.17" filterUnits="userSpaceOnUse" color-interpolation-filters="sRGB">
<feFlood flood-opacity="0" result="BackgroundImageFix"/>
<feBlend mode="normal" in="SourceGraphic" in2="BackgroundImageFix" result="shape"/>
<feGaussianBlur stdDeviation="166.519" result="effect1_foregroundBlur_581_226"/>
</filter>
<filter id="filter25_f_581_226" x="949.595" y="-704.28" width="1801.1" height="1483.72" filterUnits="userSpaceOnUse" color-interpolation-filters="sRGB">
<feFlood flood-opacity="0" result="BackgroundImageFix"/>
<feBlend mode="normal" in="SourceGraphic" in2="BackgroundImageFix" result="shape"/>
<feGaussianBlur stdDeviation="77.0461" result="effect1_foregroundBlur_581_226"/>
</filter>
<filter id="filter26_f_581_226" x="-222.007" y="722.35" width="1571.86" height="511.933" filterUnits="userSpaceOnUse" color-interpolation-filters="sRGB">
<feFlood flood-opacity="0" result="BackgroundImageFix"/>
<feBlend mode="normal" in="SourceGraphic" in2="BackgroundImageFix" result="shape"/>
<feGaussianBlur stdDeviation="5.97027" result="effect1_foregroundBlur_581_226"/>
</filter>
<filter id="filter27_f_581_226" x="-228.831" y="703.223" width="1585.51" height="537.883" filterUnits="userSpaceOnUse" color-interpolation-filters="sRGB">
<feFlood flood-opacity="0" result="BackgroundImageFix"/>
<feBlend mode="normal" in="SourceGraphic" in2="BackgroundImageFix" result="shape"/>
<feGaussianBlur stdDeviation="9.38185" result="effect1_foregroundBlur_581_226"/>
</filter>
<filter id="filter28_f_581_226" x="-242.853" y="667.913" width="1769.57" height="586.476" filterUnits="userSpaceOnUse" color-interpolation-filters="sRGB">
<feFlood flood-opacity="0" result="BackgroundImageFix"/>
<feBlend mode="normal" in="SourceGraphic" in2="BackgroundImageFix" result="shape"/>
<feGaussianBlur stdDeviation="16.205" result="effect1_foregroundBlur_581_226"/>
</filter>
<filter id="filter29_f_581_226" x="-263.323" y="587.535" width="1825.3" height="687.324" filterUnits="userSpaceOnUse" color-interpolation-filters="sRGB">
<feFlood flood-opacity="0" result="BackgroundImageFix"/>
<feBlend mode="normal" in="SourceGraphic" in2="BackgroundImageFix" result="shape"/>
<feGaussianBlur stdDeviation="26.4398" result="effect1_foregroundBlur_581_226"/>
</filter>
<linearGradient id="paint0_linear_581_226" x1="507.429" y1="456.769" x2="-135.077" y2="341.508" gradientUnits="userSpaceOnUse">
<stop stop-color="#C4C4C4"/>
<stop offset="0.943414" stop-color="#C4C4C4" stop-opacity="0"/>
</linearGradient>
<linearGradient id="paint1_linear_581_226" x1="257.334" y1="180.162" x2="131.297" y2="823.166" gradientUnits="userSpaceOnUse">
<stop stop-color="#C4C4C4"/>
<stop offset="1" stop-color="#C4C4C4" stop-opacity="0"/>
</linearGradient>
<linearGradient id="paint2_linear_581_226" x1="2243.82" y1="739.931" x2="1789.73" y2="-176.833" gradientUnits="userSpaceOnUse">
<stop stop-color="#C4C4C4"/>
<stop offset="1" stop-color="#C4C4C4" stop-opacity="0"/>
</linearGradient>
<linearGradient id="paint3_linear_581_226" x1="600.241" y1="953.095" x2="567.968" y2="1122.59" gradientUnits="userSpaceOnUse">
<stop stop-color="#C4C4C4"/>
<stop offset="1" stop-color="#C4C4C4" stop-opacity="0"/>
</linearGradient>
<linearGradient id="paint4_linear_581_226" x1="-188.325" y1="814.086" x2="1332.07" y2="1172.48" gradientUnits="userSpaceOnUse">
<stop stop-color="#C4C4C4" stop-opacity="0"/>
<stop offset="0.364583" stop-color="#C4C4C4"/>
<stop offset="0.609375" stop-color="#C4C4C4"/>
<stop offset="1" stop-color="#C4C4C4" stop-opacity="0"/>
</linearGradient>
</defs>
</svg>
