<svg width="40" height="40" viewBox="0 0 40 40" fill="none" xmlns="http://www.w3.org/2000/svg">
<path d="M0.402128 21.9443L1.33712 24.3489C1.43201 24.585 1.49681 24.8396 1.53847 25.0964L1.9296 27.6376C2.1541 29.1073 2.92017 30.4288 4.07965 31.3591L6.08158 32.9653C6.28293 33.125 6.46577 33.3148 6.6324 33.5161L8.23855 35.518C9.16893 36.6798 10.4905 37.4436 11.96 37.6681L14.5012 38.0592C14.7558 38.1009 15.0104 38.1657 15.2488 38.2606L17.6534 39.1956C18.3477 39.4617 19.0698 39.5983 19.7988 39.5983C20.5279 39.5983 21.2499 39.4617 21.9443 39.1956L24.3489 38.2606C24.585 38.1657 24.8396 38.1009 25.0964 38.0592L27.6376 37.6681C29.1073 37.4436 30.4288 36.6775 31.3591 35.518L32.9653 33.5161C33.125 33.3148 33.3148 33.1319 33.5161 32.9653L35.518 31.3591C36.6798 30.4288 37.4436 29.1072 37.6681 27.6376L38.0592 25.0964C38.1009 24.8419 38.1657 24.5873 38.2606 24.3489L39.1956 21.9443C39.7348 20.5649 39.7348 19.0421 39.1956 17.6557L38.2606 15.2511C38.1657 15.015 38.1009 14.7604 38.0592 14.5036L37.6681 11.9623C37.4436 10.4927 36.6775 9.17124 35.518 8.24087L33.5161 6.63471C33.3148 6.47502 33.1319 6.28524 32.9653 6.08389L31.3591 4.08196C30.4288 2.92017 29.1072 2.1564 27.6376 1.93191L25.0964 1.54078C24.8419 1.49912 24.5873 1.43432 24.3489 1.33943L21.9443 0.404439C20.5649 -0.134813 19.0351 -0.134813 17.6557 0.404439L15.2511 1.33943C15.015 1.43432 14.7604 1.49912 14.5036 1.54078L11.9623 1.93191C10.4927 2.15641 9.17124 2.92248 8.24087 4.08196L6.63471 6.08389C6.47502 6.28524 6.28525 6.46808 6.08389 6.63471L4.08196 8.24087C2.92017 9.17124 2.1564 10.4928 1.93191 11.9623L1.54078 14.5036C1.49912 14.7581 1.43432 15.0127 1.33943 15.2511L0.404439 17.6557C-0.134813 19.0351 -0.134813 20.5579 0.404439 21.9443H0.402128ZM2.61006 18.512L3.54506 16.1074C3.70012 15.7093 3.81121 15.2904 3.87601 14.8622L4.26714 12.321C4.40369 11.4392 4.85962 10.6454 5.55857 10.0877L7.5605 8.48153C7.8984 8.20843 8.21317 7.90062 8.47932 7.56271L10.0855 5.56078C10.6432 4.86184 11.437 4.40592 12.3188 4.26936L14.86 3.87822C15.2859 3.81342 15.7025 3.70002 16.1052 3.54727L18.5098 2.61228C18.9241 2.45259 19.3569 2.36927 19.7966 2.36927C20.234 2.36927 20.6669 2.45258 21.0834 2.61228L23.4881 3.54727C23.8861 3.70234 24.305 3.81343 24.7332 3.87822L27.2744 4.26936C28.1562 4.40591 28.95 4.86184 29.5078 5.56078L31.1139 7.56271C31.387 7.90061 31.6948 8.21539 32.0328 8.48153L34.0347 10.0877C34.7336 10.6455 35.1895 11.4392 35.3261 12.321L35.7172 14.8622C35.782 15.2881 35.8955 15.7047 36.0482 16.1074L36.9832 18.512C37.3026 19.3406 37.3026 20.2548 36.9832 21.0833L36.0482 23.4879C35.8931 23.886 35.782 24.3049 35.7172 24.7331L35.3261 27.2743C35.1896 28.1561 34.7336 28.9499 34.0347 29.5076L32.0328 31.1138C31.6949 31.3869 31.3801 31.6947 31.1139 32.0326L29.5078 34.0345C28.95 34.7335 28.1562 35.1894 27.2744 35.326L24.7332 35.7171C24.3074 35.7819 23.8908 35.8953 23.4881 36.048L21.0834 36.983C20.2549 37.3024 19.3407 37.3024 18.5122 36.983L16.1076 36.048C15.7095 35.893 15.2906 35.7819 14.8624 35.7171L12.3212 35.326C11.4394 35.1894 10.6456 34.7335 10.0878 34.0345L8.48169 32.0326C8.20859 31.6947 7.90078 31.3799 7.56287 31.1138L5.56094 29.5076C4.86199 28.9499 4.40608 28.1561 4.26951 27.2743L3.87838 24.7331C3.81357 24.3072 3.70017 23.8906 3.54743 23.4879L2.61243 21.0833C2.29305 20.2548 2.29305 19.3406 2.61243 18.512H2.61006Z" fill="#245AFF"/>
<path d="M13.631 25.9667C13.8625 26.1981 14.1633 26.3161 14.4665 26.3161C14.7697 26.3161 15.0706 26.1981 15.302 25.9667L25.9667 15.302C26.4296 14.8392 26.4296 14.087 25.9667 13.6265C25.5038 13.1636 24.7516 13.1636 24.2911 13.6265L13.6265 24.2911C13.1636 24.754 13.1636 25.5061 13.6265 25.9667H13.631Z" fill="#245AFF"/>
<path d="M15.0588 18.6142C17.0191 18.6142 18.6137 17.0196 18.6137 15.0593C18.6137 13.099 17.0191 11.5044 15.0588 11.5044C13.0985 11.5044 11.5039 13.099 11.5039 15.0593C11.5039 17.0196 13.0985 18.6142 15.0588 18.6142ZM15.0588 13.8743C15.7115 13.8743 16.2437 14.4066 16.2437 15.0593C16.2437 15.7119 15.7114 16.2442 15.0588 16.2442C14.4061 16.2442 13.8738 15.7119 13.8738 15.0593C13.8738 14.4066 14.4061 13.8743 15.0588 13.8743Z" fill="#245AFF"/>
<path d="M20.9834 24.5388C20.9834 26.499 22.578 28.0936 24.5383 28.0936C26.4986 28.0936 28.0932 26.499 28.0932 24.5388C28.0932 22.5785 26.4986 20.9839 24.5383 20.9839C22.578 20.9839 20.9834 22.5785 20.9834 24.5388ZM25.7232 24.5388C25.7232 25.1914 25.1909 25.7237 24.5383 25.7237C23.8856 25.7237 23.3533 25.1914 23.3533 24.5388C23.3533 23.8861 23.8856 23.3538 24.5383 23.3538C25.1909 23.3538 25.7232 23.8861 25.7232 24.5388Z" fill="#245AFF"/>
</svg>
