<svg width="25" height="25" viewBox="0 0 25 25" fill="none" xmlns="http://www.w3.org/2000/svg">
<path fill-rule="evenodd" clip-rule="evenodd" d="M25 25H20V16.2413C20 13.8389 18.9375 12.4875 17.0375 12.4875C15.1375 12.4875 13.75 13.9014 13.75 16.2413V25H8.75V8.73375H13.75V10.5606C14.8671 8.82947 16.7913 7.79085 18.85 7.80782C22.3875 7.80782 25 9.985 25 14.4395V25ZM3.05006 6.13113C2.23784 6.12782 1.46019 5.80166 0.888205 5.22441C0.316218 4.64715 -0.00325592 3.86609 6.60621e-05 3.05305C6.60621e-05 1.3669 1.3656 0 3.05006 0C4.73453 0 6.10006 1.3669 6.10006 3.05305C6.10338 3.86609 5.78391 4.64715 5.21192 5.22441C4.63994 5.80166 3.86229 6.12782 3.05006 6.13113ZM0 25H6.25V8.73374H0V25Z" fill="#9CA3AF"/>
</svg>
