<svg width="120" height="28" viewBox="0 0 120 28" fill="none" xmlns="http://www.w3.org/2000/svg">
<g clip-path="url(#clip0_378_159)">
<path fill-rule="evenodd" clip-rule="evenodd" d="M10.8348 17.9765C10.7581 17.887 10.6756 17.7975 10.5989 17.7099C9.48475 16.5236 7.88733 15.783 6.125 15.783C2.74415 15.783 -0.00195312 18.4982 -0.00195312 21.857C-0.00195312 25.2158 2.74415 27.931 6.125 27.931C7.90843 27.931 9.52119 27.1694 10.6411 25.9565C10.689 25.9013 10.7447 25.8403 10.8003 25.7775C11.9202 24.5703 13.5253 23.8106 15.3164 23.8106C17.1075 23.8106 18.7126 24.5722 19.8325 25.7851C19.8881 25.8403 19.936 25.9013 19.9917 25.9565C21.1058 27.1694 22.7167 27.931 24.5078 27.931C27.8886 27.931 30.627 25.2101 30.627 21.857C30.627 18.5039 27.8886 15.783 24.5078 15.783C22.7378 15.783 21.148 16.5236 20.0262 17.7099C19.9495 17.7994 19.8747 17.8889 19.7903 17.9765C18.6704 19.1627 17.0787 19.9034 15.3164 19.9034C13.554 19.9034 11.9566 19.1627 10.8348 17.9765Z" fill="url(#paint0_linear_378_159)"/>
<path d="M23.8845 0C24.2584 0 24.5959 0.150423 24.8452 0.397954C25.0868 0.637869 25.2402 0.980604 25.2402 1.35C25.2402 1.71939 25.0888 2.06212 24.8452 2.30204C24.5959 2.54957 24.2565 2.69999 23.8845 2.69999C23.5124 2.69999 23.1653 2.54957 22.916 2.30204C22.6744 2.05451 22.521 1.71939 22.521 1.35C22.521 0.980604 22.6725 0.637869 22.916 0.397954C23.1653 0.150423 23.5048 0 23.8845 0ZM23.4626 1.99548V0.719744H24.0436C24.057 0.727361 24.0781 0.727361 24.0916 0.727361C24.1683 0.740689 24.2296 0.761634 24.2776 0.803524C24.3255 0.837798 24.36 0.8854 24.3888 0.948235C24.4099 1.00345 24.4233 1.06438 24.4233 1.14055C24.4233 1.24337 24.3965 1.33286 24.3409 1.40712C24.3063 1.45472 24.2642 1.489 24.2028 1.51756L24.4444 1.99739H24.1951L23.9803 1.55183H23.6754V1.99739H23.4607L23.4626 1.99548ZM23.6773 1.35H24.0225C24.036 1.35 24.0494 1.34238 24.0647 1.34238C24.0992 1.32905 24.1261 1.31572 24.1472 1.29478C24.1683 1.27383 24.1817 1.24718 24.1951 1.21861C24.2028 1.19196 24.2028 1.1634 24.2028 1.13674C24.2028 1.11008 24.2028 1.08152 24.1951 1.05486C24.1817 1.02059 24.1683 0.999645 24.1472 0.972988C24.1261 0.952043 24.0992 0.938714 24.0647 0.931098C24.0513 0.923482 24.0379 0.923482 24.0225 0.923482C24.0091 0.915865 23.9957 0.915865 23.9803 0.915865H23.6754V1.34809L23.6773 1.35ZM24.6649 0.569322C24.4636 0.371297 24.1874 0.247531 23.8845 0.247531C23.5815 0.247531 23.2957 0.371297 23.0963 0.569322C22.8949 0.767347 22.7722 1.04915 22.7722 1.35C22.7722 1.65084 22.8969 1.93265 23.0963 2.13067C23.2957 2.3287 23.5738 2.45246 23.8845 2.45246C24.1951 2.45246 24.4655 2.3287 24.6649 2.13067C24.8663 1.92503 24.989 1.65084 24.989 1.35C24.989 1.04915 24.8644 0.767347 24.6649 0.569322Z" fill="#45A5E0"/>
<path fill-rule="evenodd" clip-rule="evenodd" d="M21.0636 8.17993C21.0981 8.06949 21.1326 7.96096 21.1748 7.84481C21.6523 6.29489 21.5066 4.55455 20.6225 3.0389C18.9254 0.137073 15.1859 -0.864476 12.2538 0.814927C9.32171 2.49433 8.31877 6.20349 10.014 9.11103C10.9057 10.6476 12.3727 11.6473 13.9893 12.0033C14.066 12.0167 14.1408 12.03 14.2252 12.0509C15.8437 12.407 17.3088 13.4086 18.2005 14.9432C19.0922 16.4798 19.238 18.2335 18.7394 19.8044C18.7125 19.8805 18.6914 19.9548 18.6627 20.0233C18.1641 21.5942 18.3022 23.3555 19.1958 24.8902C20.8891 27.7901 24.6381 28.784 27.5626 27.1123C30.4947 25.4329 31.4976 21.7161 29.8101 18.8162C28.9241 17.2948 27.4801 16.3009 25.8884 15.9372C25.7715 15.9162 25.6526 15.8896 25.5356 15.8686C23.9382 15.4992 22.4999 14.5034 21.614 12.982C20.728 11.4664 20.5842 9.73176 21.0617 8.17612L21.0636 8.17993Z" fill="url(#paint1_linear_378_159)"/>
<path fill-rule="evenodd" clip-rule="evenodd" d="M9.56341 8.17993C9.52889 8.06949 9.49438 7.96096 9.45219 7.84481C8.97469 6.29489 9.12043 4.55455 10.0045 3.0389C11.6997 0.137073 15.4411 -0.864476 18.3732 0.814927C21.3053 2.49433 22.3082 6.20349 20.613 9.11103C19.7213 10.6476 18.2543 11.6473 16.6377 12.0033C16.561 12.0167 16.4862 12.03 16.4018 12.0509C14.7833 12.407 13.3182 13.4086 12.4265 14.9432C11.7419 16.1219 11.5003 17.4319 11.646 18.6943C11.3564 18.4753 11.086 18.2354 10.8367 17.9745C10.76 17.8851 10.6776 17.7956 10.6009 17.708C9.48671 16.5217 7.88929 15.781 6.12695 15.781C5.7741 15.781 5.42125 15.8077 5.08374 15.8705H5.09141C6.68883 15.5011 8.12708 14.5053 9.01304 12.9839C9.899 11.4683 10.0428 9.73366 9.56533 8.17803L9.56341 8.17993Z" fill="url(#paint2_linear_378_159)"/>
<path d="M117.089 22.1389V20.5547C116.788 21.0098 116.37 21.3849 115.843 21.6781C115.075 22.1008 114.109 22.3103 112.945 22.3103C111.957 22.3103 111.094 22.1465 110.354 21.8076C109.608 21.4744 109.039 21.0117 108.634 20.4138C108.229 19.8159 108.032 19.1419 108.032 18.3936C108.032 17.6452 108.21 16.9998 108.559 16.4076C108.916 15.823 109.497 15.3527 110.3 15.0138C111.11 14.6673 112.178 14.4959 113.514 14.4959H116.92V14.2979C116.92 13.3991 116.646 12.706 116.105 12.2034C115.564 11.7064 114.742 11.4551 113.639 11.4551C112.899 11.4551 112.166 11.5712 111.453 11.8016C110.734 12.032 110.13 12.3462 109.637 12.7537L108.431 10.5297C109.136 9.98511 109.978 9.58335 110.958 9.31106C111.938 9.0464 112.953 8.9093 114.007 8.9093C115.912 8.9093 117.392 9.35867 118.433 10.2707C119.482 11.1752 120.002 12.5766 120.002 14.4749V22.1427H117.089V22.1389ZM116.918 18.0489V16.5256H113.733C112.678 16.5256 111.973 16.6951 111.608 17.0283C111.246 17.3615 111.068 17.7766 111.068 18.266C111.068 18.8239 111.286 19.2599 111.733 19.5855C112.178 19.913 112.795 20.0825 113.584 20.0825C114.372 20.0825 115.022 19.9054 115.626 19.5646C116.222 19.218 116.654 18.7134 116.92 18.047L116.918 18.0489Z" fill="#000000"/>
<path d="M100.563 8.9054C101.617 8.9054 102.557 9.10913 103.385 9.51851C104.222 9.92599 104.872 10.5524 105.351 11.3902C105.825 12.2337 106.064 13.3153 106.064 14.6424V22.1388H102.981V15.0289C102.981 13.8732 102.707 13.0087 102.152 12.4375C101.604 11.8662 100.837 11.573 99.8435 11.573C99.1244 11.573 98.48 11.7234 97.9181 12.0148C97.3639 12.3137 96.9305 12.7497 96.6237 13.3286C96.3226 13.9074 96.1711 14.6424 96.1711 15.5183V22.1369H93.0818V9.0482H96.0216V10.7486C96.0216 10.7486 96.035 10.7276 96.0772 10.6876C96.4684 10.2383 96.9478 9.87077 97.5154 9.57944C98.3918 9.13008 99.4139 8.9054 100.565 8.9054H100.563Z" fill="#000000"/>
<path d="M88.5235 6.89283C87.9482 6.89283 87.4745 6.71575 87.1044 6.35588C86.7343 5.99601 86.5502 5.56759 86.5502 5.05729C86.5502 4.547 86.7343 4.09763 87.1044 3.75109C87.4745 3.39693 87.9462 3.21985 88.5235 3.21985C89.1007 3.21985 89.5724 3.38931 89.9483 3.72253C90.3184 4.05574 90.5025 4.47845 90.5025 4.98113C90.5025 5.5257 90.3184 5.97506 89.954 6.34255C89.5973 6.71004 89.1179 6.89283 88.5215 6.89283H88.5235Z" fill="#000000"/>
<path d="M90.0576 9.04822H86.9683V22.1369H90.0576V9.04822Z" fill="#000000"/>
<path d="M78.636 8.90547C79.6907 8.90547 80.6227 9.10921 81.4377 9.51858C82.2527 9.92796 82.8894 10.5525 83.3496 11.3903C83.8156 12.2338 84.0419 13.3153 84.0419 14.6425V22.1389H80.9583V15.029C80.9583 13.8732 80.7052 13.0088 80.1912 12.4375C79.685 11.8663 78.9505 11.5731 77.9993 11.5731C77.3205 11.5731 76.7241 11.7235 76.2044 12.0148C75.6905 12.3138 75.2858 12.7422 74.9982 13.3134C74.7105 13.8847 74.5667 14.612 74.5667 15.4974V22.137H71.4831V15.0271C71.4831 13.8713 71.2223 13.0069 70.716 12.4356C70.2098 11.8644 69.4753 11.5712 68.5165 11.5712C67.8453 11.5712 67.2489 11.7216 66.7273 12.0129C66.2134 12.3119 65.8087 12.7403 65.5211 13.3115C65.2334 13.8827 65.0896 14.6101 65.0896 15.4955V22.1351H62.0002V9.04828H64.94V10.7144C65.3447 10.2174 65.7896 9.86322 66.3591 9.56428C67.2086 9.12253 68.1751 8.90356 69.2567 8.90356C70.4974 8.90356 71.5656 9.20251 72.4841 9.80801C72.9846 10.1412 73.4027 10.5639 73.7114 11.0933C74.6089 9.63093 77.0137 8.90356 78.6379 8.90356L78.636 8.90547Z" fill="#000000"/>
<path d="M41.0286 22.1388L48.8047 4.98108H51.9631L59.7603 22.1388H56.4025L54.69 18.1726H46.0509L44.3385 22.1388H41.0286ZM53.6066 15.6687L50.358 8.16471L47.1248 15.6687H53.6066Z" fill="#000000"/>
</g>
<defs>
<linearGradient id="paint0_linear_378_159" x1="-1.38651" y1="21.7942" x2="20.8373" y2="21.8772" gradientUnits="userSpaceOnUse">
<stop stop-color="#0178C2"/>
<stop offset="0.06" stop-color="#1285CC"/>
<stop offset="0.15" stop-color="#2E9ADC"/>
<stop offset="0.26" stop-color="#43AAE9"/>
<stop offset="0.37" stop-color="#53B6F2"/>
<stop offset="0.5" stop-color="#5CBCF7"/>
<stop offset="0.7" stop-color="#5FBFF9"/>
<stop offset="1" stop-color="#5FBFF9" stop-opacity="0"/>
</linearGradient>
<linearGradient id="paint1_linear_378_159" x1="29.4304" y1="28.5784" x2="16.5965" y2="8.6013" gradientUnits="userSpaceOnUse">
<stop stop-color="#0178C2"/>
<stop offset="0.06" stop-color="#1486CD"/>
<stop offset="0.15" stop-color="#2F9BDD"/>
<stop offset="0.25" stop-color="#44ABE9"/>
<stop offset="0.36" stop-color="#53B6F2"/>
<stop offset="0.5" stop-color="#5CBCF7"/>
<stop offset="0.7" stop-color="#5FBFF9"/>
<stop offset="1" stop-color="#5FBFF9" stop-opacity="0"/>
</linearGradient>
<linearGradient id="paint2_linear_378_159" x1="18.7203" y1="0.310345" x2="7.56693" y2="19.4281" gradientUnits="userSpaceOnUse">
<stop stop-color="#0178C2"/>
<stop offset="0.06" stop-color="#1184CB"/>
<stop offset="0.16" stop-color="#2D99DB"/>
<stop offset="0.27" stop-color="#43AAE8"/>
<stop offset="0.4" stop-color="#52B5F1"/>
<stop offset="0.54" stop-color="#5CBCF7"/>
<stop offset="0.74" stop-color="#5FBFF9"/>
<stop offset="1" stop-color="white" stop-opacity="0"/>
</linearGradient>
<clipPath id="clip0_378_159">
<rect width="120" height="27.931" fill="#000000"/>
</clipPath>
</defs>
</svg>
